<svg width="223" height="223" viewBox="0 0 223 223" fill="none" xmlns="http://www.w3.org/2000/svg">
    <path fill-rule="evenodd" clip-rule="evenodd" d="M199.554 99.8676L211.167 111.48L199.554 123.093L205.21 128.75L216.823 117.137L222.48 111.48L216.823 105.823L205.211 94.2107L199.554 99.8676ZM123.093 23.4069L128.75 17.75L117.137 6.13732L111.48 0.480469L105.824 6.13732L94.2107 17.7502L99.8676 23.4071L111.48 11.7942L123.093 23.4069ZM23.4071 123.093L11.7944 111.48L23.4069 99.8678L17.75 94.2109L6.13756 105.823L0.480707 111.48L6.13756 117.137L17.7502 128.75L23.4071 123.093ZM99.8678 199.554L94.2109 205.21L105.824 216.823L111.48 222.48L117.137 216.823L128.75 205.211L123.093 199.554L111.48 211.166L99.8678 199.554Z" fill="#C7C7C7"/>
    <path fill-rule="evenodd" clip-rule="evenodd" d="M167 162V167H162V175H167H175V167V162H167ZM175 61V56V48L167 48L162 48V56H167V61H175ZM61 56L61 48L56 48H48L48 56L48 61H56V56H61ZM61 167H56V162H48L48 167L48 175H56H61L61 167Z" fill="#D9D9D9"/>
    <circle cx="111" cy="112" r="59" fill="#E8E8E8"/>
</svg>
