<?xml version="1.0" encoding="UTF-8"?><svg id="Layer_1" xmlns="http://www.w3.org/2000/svg" viewBox="0 0 1080 1080"><defs><style>.cls-1{fill:#341322;}</style></defs><rect class="cls-1" x="287.93" y="443.09" width="344.56" height="193.81"/><path class="cls-1" d="M415.91,222.16v193.81h-77.45l-8.01-173.81h-2.05v173.81h-40.47V222.16h77.45l8.01,173.95h2.05V222.16h40.47Z"/><path class="cls-1" d="M510,248.52v141.1c0,19.06-14.59,28.52-43.76,28.52s-43.76-9.46-43.76-28.52V248.52c0-19.06,14.59-28.52,43.76-28.52s43.76,9.46,43.76,28.52Zm-40.26-4.19h-6.78v149.48h6.78V244.33Z"/><path class="cls-1" d="M573.9,222.16v22.17h-10.07v171.65h-40.26V244.33h-10.27v-22.17h60.6Z"/><path class="cls-1" d="M657.72,393.81v-53.93c0-5.27-5.34-10.68-16.23-16.08-10.89-5.27-18.69-10.81-23.62-16.49-4.93-5.54-7.39-11.76-7.39-18.65v-39.6c0-10,3.7-17.3,10.89-22.03s18.08-7.03,33.07-7.03,25.68,2.3,32.87,7.03c7.19,4.73,10.68,12.03,10.68,22.03v43.52h-40.26v-48.52h-6.78v44.87c0,5.54,5.34,11.08,16.23,16.76,10.89,5.81,18.69,11.62,23.62,17.44,4.73,5.95,7.19,12.57,7.19,20v45.95c0,10-3.49,17.3-10.68,22.03-7.19,4.73-18.08,7.03-32.87,7.03s-25.88-2.3-33.07-7.03-10.89-12.03-10.89-22.03v-52.85h40.47v57.58h6.78Z"/><path class="cls-1" d="M792.07,248.52v141.1c0,19.06-14.59,28.52-43.76,28.52s-43.76-9.46-43.76-28.52V248.52c0-19.06,14.58-28.52,43.76-28.52s43.76,9.46,43.76,28.52Zm-40.26-4.19h-6.78v149.48h6.78V244.33Z"/><path class="cls-1" d="M328.4,686.19v63.66h10.07v22.16h-10.07v63.66h10.07v22.16h-50.54v-193.81h50.54v22.17h-10.07Z"/><path class="cls-1" d="M432.55,735.25c0,15.68-8.63,24.06-25.68,25.14v1.08c17.05,1.49,25.68,10,25.68,25.55v70.82h-40.26v-85.82h-6.78v85.82h-40.47v-193.81h48.89c25.68,.41,38.62,9.19,38.62,26.09v45.14Zm-40.26-49.06h-6.78v63.66h6.78v-63.66Z"/><path class="cls-1" d="M526.64,664.02v167.46c0,19.06-14.59,28.52-43.76,28.52s-43.76-9.46-43.76-28.52v-167.46h40.47v171.65h6.78v-171.65h40.26Z"/><path class="cls-1" d="M576.98,664.02c15.41,0,26.71,2.16,33.48,6.62,6.78,4.46,10.27,11.76,10.27,21.9v136.78c0,10.14-3.49,17.44-10.27,21.9s-18.08,6.62-33.48,6.62h-43.76v-193.81h43.76Zm3.49,22.17h-6.78v149.48h6.78v-149.48Z"/><path class="cls-1" d="M627.31,664.02h40.47v193.81h-40.47v-193.81Z"/><path class="cls-1" d="M734.96,664.02v22.17h-10.07v171.65h-40.26v-171.65h-10.27v-22.17h60.6Z"/><path class="cls-1" d="M782.01,686.19v63.66h10.07v22.16h-10.07v63.66h10.07v22.16h-50.54v-193.81h50.54v22.17h-10.07Z"/></svg>